<?xml version="1.0" encoding="utf-8"?>
<!-- Svg Vector Icons : http://www.onlinewebfonts.com/icon -->
<!DOCTYPE svg PUBLIC "-//W3C//DTD SVG 1.1//EN" "http://www.w3.org/Graphics/SVG/1.1/DTD/svg11.dtd">
<svg version="1.1" xmlns="http://www.w3.org/2000/svg" xmlns:xlink="http://www.w3.org/1999/xlink" x="0px" y="0px" viewBox="0 0 256 256" enable-background="new 0 0 256 256" xml:space="preserve">
<metadata> Svg Vector Icons : http://www.onlinewebfonts.com/icon </metadata>
<g><g><g><path fill="#000000" d="M187.7,22.7c1.9,0,3.5-1.6,3.5-3.5c0-2-1.6-3.5-3.5-3.5H68.3c-1.9,0-3.5,1.6-3.5,3.5c0,2,1.6,3.5,3.5,3.5H187.7z M187.7,29.7H54.3c-23,0-33.8,8.2-38.8,15.1c-6,8.4-7.2,19.7-3.2,31.7c6.2,18.6,27,40.9,39.8,50.8c0.7,0.5,1.4,0.7,2.1,0.7c1,0,2.1-0.5,2.8-1.4c1.2-1.5,0.9-3.7-0.6-4.9C44.7,112.6,24.7,91.2,19,74.2c-3.3-9.8-2.5-18.8,2.2-25.4c5.7-7.9,17.1-12.1,33-12.1h10.5v66.7c0,47.2,46.8,74.4,56.4,79.5c-0.1,0.4-0.2,0.8-0.2,1.3v17.6c0,1.9,1.6,3.5,3.5,3.5c1.9,0,3.5-1.6,3.5-3.5v-17.6c0-0.4-0.1-0.8-0.2-1.2c10.6-5,63.4-32.2,63.4-79.6V36.7h10.5c15.9,0,27.3,4.2,33,12.1c4.7,6.6,5.5,15.6,2.2,25.4c-4.4,13.3-26.5,39-37.4,47.5c-1.5,1.2-1.8,3.4-0.6,4.9c0.7,0.9,1.7,1.3,2.8,1.3c0.7,0,1.5-0.2,2.1-0.7c12.2-9.4,34.8-35.9,39.8-50.8c4-12,2.9-23.3-3.2-31.7c-5-6.9-15.7-15.1-38.8-15.1H187.7L187.7,29.7z M184.2,103.4c0,42.8-50.2,68.8-59.6,73.3c-8.6-4.7-52.7-30.7-52.7-73.3V36.7h112.3V103.4L184.2,103.4z M85.9,212.3c-8,0-14,6-14,14v10.5c0,1.9,1.6,3.5,3.5,3.5h98.3c1.9,0,3.5-1.6,3.5-3.5v-10c0-8.2-6.2-14.6-14-14.6H85.9z M170.1,226.8v6.5H78.9v-7c0-4.1,2.9-7,7-7h77.2C167.1,219.3,170.1,222.5,170.1,226.8z"/></g></g></g>
</svg>